<svg xmlns="http://www.w3.org/2000/svg" viewBox="0 0 60 60"><defs><style>.cls-1{fill:#204056;}.cls-2{fill:#fff;}</style></defs><title>codeacademy-icon</title><g id="Layer_2" data-name="Layer 2"><g id="Layer_4" data-name="Layer 4"><path class="cls-1" d="M6,0H54a6,6,0,0,1,6,6V54a6,6,0,0,1-6,6H6a6,6,0,0,1-6-6V6A6,6,0,0,1,6,0Z"/><g id="Layer_5" data-name="Layer 5"><path class="cls-2" d="M12.36,30q0-7.67,0-15.34c0-.65,0-.66.63-.66H33.81c.63,0,.63,0,.63.65q0,15.36,0,30.72c0,.66,0,.66-.67.66H13c-.68,0-.68,0-.68-.7Q12.36,37.65,12.36,30Zm3.06,0q0,6.17,0,12.34c0,.61,0,.62.63.62H30.78c.6,0,.6,0,.6-.59q0-12.36,0-24.72c0-.56,0-.6-.61-.6H16c-.61,0-.62,0-.62.63Q15.41,23.83,15.41,30Z"/><path class="cls-2" d="M43,46c-1.48,0-3,0-4.45,0-.4,0-.53-.14-.52-.53,0-.68,0-1.37,0-2.05,0-.34.1-.49.46-.49h9c.36,0,.48.13.47.48,0,.7,0,1.4,0,2.1,0,.38-.15.49-.51.49C46,46,44.52,46,43,46Z"/><path class="cls-2" d="M18.07,32.35a24.93,24.93,0,0,1,.33-2.58,5.2,5.2,0,0,1,5.14-4.21,5.85,5.85,0,0,1,4.76,1.8c.39.42.38.46,0,.84s-.89.77-1.31,1.17c-.24.23-.41.22-.63,0A3,3,0,0,0,24,28.28a2.41,2.41,0,0,0-2.52,1.91,9.86,9.86,0,0,0,0,4.67,2.69,2.69,0,0,0,4.18,1.43,2.32,2.32,0,0,0,.58-.5c.29-.39.53-.3.83,0s.84.78,1.28,1.13.29.46,0,.73a5.82,5.82,0,0,1-4.92,1.81A7,7,0,0,1,21.49,39a5.09,5.09,0,0,1-3.21-4.31C18.17,34,18.15,33.23,18.07,32.35Z"/></g></g></g></svg>