<svg xmlns="http://www.w3.org/2000/svg" viewBox="0 0 60 60"><defs><style>.cls-1{fill:#212121;}.cls-2{fill:#fff;}</style></defs><title>codepad-icon</title><g id="Layer_2" data-name="Layer 2"><g id="Layer_8" data-name="Layer 8"><path class="cls-1" d="M6,0H54a6,6,0,0,1,6,6V54a6,6,0,0,1-6,6H6a6,6,0,0,1-6-6V6A6,6,0,0,1,6,0Z"/><polygon class="cls-2" points="23.67 25.77 25.91 23.28 20.29 17.82 8.25 30 20.05 41.76 38.83 23.56 45.23 29.97 38.56 36.54 36.46 34.42 34.16 36.73 39.8 42.2 51.91 30 39.27 17.8 21.04 35.78 15.41 30 21.48 23.84 23.67 25.77"/></g></g></svg>