<svg xmlns="http://www.w3.org/2000/svg" viewBox="0 0 60 60"><defs><style>.cls-1{fill:#4bacc0;}.cls-2{fill:#fff;}</style></defs><title>code-school-icon</title><g id="Layer_2" data-name="Layer 2"><g id="Layer_8_copy" data-name="Layer 8 copy"><path class="cls-1" d="M6,0H54a6,6,0,0,1,6,6V54a6,6,0,0,1-6,6H6a6,6,0,0,1-6-6V6A6,6,0,0,1,6,0Z"/><path class="cls-2" d="M32.39,18.35V24l6.38,6-6.38,6v5.63L44.71,30ZM27.63,36l-6.38-6,6.38-6V18.35L15.31,30,27.63,41.63ZM30,8.13A21.87,21.87,0,1,0,51.88,30,21.88,21.88,0,0,0,30,8.13Zm0,39.8A17.95,17.95,0,1,1,47.95,30,17.95,17.95,0,0,1,30,47.92Z"/></g></g></svg>