<svg xmlns="http://www.w3.org/2000/svg" viewBox="0 0 60 60"><defs><style>.cls-1{fill:#fff;fill-rule:evenodd;}</style></defs><title>github-icon</title><g id="Layer_2" data-name="Layer 2"><g id="Layer_3" data-name="Layer 3"><path d="M6,0H54a6,6,0,0,1,6,6V54a6,6,0,0,1-6,6H6a6,6,0,0,1-6-6V6A6,6,0,0,1,6,0Z"/><path class="cls-1" d="M30,10.14a20.36,20.36,0,0,0-6.43,39.68c1,.19,1.39-.44,1.39-1s0-1.76,0-3.46c-5.66,1.23-6.86-2.73-6.86-2.73a5.39,5.39,0,0,0-2.26-3c-1.85-1.26.14-1.24.14-1.24a4.28,4.28,0,0,1,3.12,2.1c1.82,3.11,4.77,2.21,5.93,1.69a4.35,4.35,0,0,1,1.29-2.72C21.76,39,17,37.24,17,29.44A7.87,7.87,0,0,1,19.1,24a7.32,7.32,0,0,1,.2-5.39S21,18,24.9,20.67a19.3,19.3,0,0,1,10.2,0C39,18,40.69,18.59,40.69,18.59A7.31,7.31,0,0,1,40.9,24,7.86,7.86,0,0,1,43,29.44c0,7.82-4.76,9.54-9.3,10a4.86,4.86,0,0,1,1.38,3.77c0,2.72,0,4.92,0,5.59s.37,1.18,1.4,1A20.36,20.36,0,0,0,30,10.14Z"/></g></g></svg>