<svg xmlns="http://www.w3.org/2000/svg" viewBox="0 0 60 60"><defs><style>.cls-1{fill:#0077b5;}.cls-2{fill:#fff;}</style></defs><title>linkedin-icon</title><g id="Layer_2" data-name="Layer 2"><g id="Layer_6" data-name="Layer 6"><path class="cls-1" d="M6,0H54a6,6,0,0,1,6,6V54a6,6,0,0,1-6,6H6a6,6,0,0,1-6-6V6A6,6,0,0,1,6,0Z"/><g id="in"><path class="cls-2" d="M22.56,42.2H17.38V25.62h5.18ZM19.84,23.55h0a2.87,2.87,0,0,1-3.09-2.87,2.9,2.9,0,0,1,3.16-2.88,2.89,2.89,0,1,1,0,5.75ZM43.29,42.2H37.41V33.62c0-2.25-.92-3.78-2.94-3.78a3,3,0,0,0-2.8,2,3.82,3.82,0,0,0-.13,1.36v9H25.72s.08-15.2,0-16.58h5.82v2.6c.34-1.14,2.2-2.76,5.17-2.76,3.68,0,6.57,2.38,6.57,7.52Z"/></g></g></g></svg>