<svg xmlns="http://www.w3.org/2000/svg" viewBox="0 0 60 60"><defs><style>.cls-1{fill:#1da1f2;}.cls-2{fill:#fff;}</style></defs><title>twitter-icon</title><g id="Layer_2" data-name="Layer 2"><g id="Layer_2-2" data-name="Layer 2"><path class="cls-1" d="M6,0H54a6,6,0,0,1,6,6V54a6,6,0,0,1-6,6H6a6,6,0,0,1-6-6V6A6,6,0,0,1,6,0Z"/><path class="cls-2" d="M48.69,17.69a14.88,14.88,0,0,1-4.27,1.17,7.45,7.45,0,0,0,3.27-4.11A14.86,14.86,0,0,1,43,16.55,7.44,7.44,0,0,0,30.3,23.34,21.1,21.1,0,0,1,15,15.57a7.45,7.45,0,0,0,2.3,9.93,7.43,7.43,0,0,1-3.37-.93v.09a7.44,7.44,0,0,0,6,7.29,7.26,7.26,0,0,1-2,.26,7.37,7.37,0,0,1-1.4-.13,7.44,7.44,0,0,0,6.94,5.16,14.92,14.92,0,0,1-9.23,3.18,15.16,15.16,0,0,1-1.77-.1,21.05,21.05,0,0,0,11.4,3.34C37.53,43.66,45,32.33,45,22.51c0-.32,0-.64,0-1a15.05,15.05,0,0,0,3.71-3.85"/></g></g></svg>